<?xml version="1.0" encoding="UTF-8"?>
<!DOCTYPE svg PUBLIC "-//W3C//DTD SVG 1.1//EN" "http://www.w3.org/Graphics/SVG/1.1/DTD/svg11.dtd">
<svg xmlns="http://www.w3.org/2000/svg" version="1.1" width="498px" height="158px" style="shape-rendering:geometricPrecision; text-rendering:geometricPrecision; image-rendering:optimizeQuality; fill-rule:evenodd; clip-rule:evenodd" xmlns:xlink="http://www.w3.org/1999/xlink">
<g><path style="opacity:0.999" fill="#7376fd" d="M 38.5,21.5 C 39.9063,21.0269 40.573,20.0269 40.5,18.5C 49.0661,7.80711 60.0661,4.30711 73.5,8C 92.359,17.575 97.5257,32.075 89,51.5C 78.5929,65.1888 65.4263,68.6888 49.5,62C 34.6491,51.4232 30.9824,37.9232 38.5,21.5 Z"/></g>
<g><path style="opacity:0.376" fill="#c9c7fc" d="M 40.5,18.5 C 40.573,20.0269 39.9063,21.0269 38.5,21.5C 38.427,19.9731 39.0937,18.9731 40.5,18.5 Z"/></g>
<g><path style="opacity:1" fill="#1e1e1e" d="M 162.5,54.5 C 163.75,54.5774 164.583,55.244 165,56.5C 165.699,75.2559 165.199,93.9225 163.5,112.5C 162.514,116.97 162.181,121.637 162.5,126.5C 165.713,126.81 168.713,126.477 171.5,125.5C 179.985,123.588 188.485,121.588 197,119.5C 202.09,119.849 203.757,122.515 202,127.5C 197.548,131.211 192.381,133.378 186.5,134C 176.602,136.217 166.602,136.883 156.5,136C 155.333,134.833 154.167,133.667 153,132.5C 153.383,107.003 154.216,81.6699 155.5,56.5C 157.479,54.8325 159.812,54.1658 162.5,54.5 Z"/></g>
<g><path style="opacity:0.565" fill="#878785" d="M 162.5,54.5 C 159.812,54.1658 157.479,54.8325 155.5,56.5C 155.414,55.5041 155.748,54.6708 156.5,54C 158.712,53.2109 160.712,53.3775 162.5,54.5 Z"/></g>
<g><path style="opacity:1" fill="#242424" d="M 327.5,56.5 C 327.427,58.0269 328.094,59.0269 329.5,59.5C 330.598,60.6009 330.765,61.9343 330,63.5C 329.578,65.4257 328.411,66.4257 326.5,66.5C 323.549,66.7128 320.882,66.0461 318.5,64.5C 317.15,56.8481 320.15,54.1814 327.5,56.5 Z"/></g>
<g><path style="opacity:1" fill="#171717" d="M 449.5,67.5 C 447.735,66.5386 445.735,66.2053 443.5,66.5C 443.5,67.5 443.5,68.5 443.5,69.5C 443.5,70.1667 443.5,70.8333 443.5,71.5C 442.503,87.9916 442.17,104.658 442.5,121.5C 448.5,121.5 454.5,121.5 460.5,121.5C 460.833,121.5 461.167,121.5 461.5,121.5C 461.427,123.027 462.094,124.027 463.5,124.5C 463.896,127.044 463.229,129.211 461.5,131C 447.147,131.744 432.814,132.411 418.5,133C 415.657,129.381 415.99,126.048 419.5,123C 423.863,122.631 428.196,122.131 432.5,121.5C 432.696,112.645 432.363,103.812 431.5,95C 432.184,85.4936 432.851,75.9936 433.5,66.5C 428.156,66.666 422.823,66.4994 417.5,66C 415.271,63.447 414.938,60.6136 416.5,57.5C 417.376,56.7492 418.376,56.2492 419.5,56C 433.914,55.0267 448.248,55.6933 462.5,58C 466.01,61.048 466.343,64.3813 463.5,68C 458.748,68.7734 454.081,68.6068 449.5,67.5 Z"/></g>
<g><path style="opacity:1" fill="#7275fd" d="M 137.5,65.5 C 139.5,69.5 142.5,72.5 146.5,74.5C 147.573,75.2506 147.74,76.2506 147,77.5C 124.833,99.6667 102.667,121.833 80.5,144C 72.0548,149.441 62.8882,150.941 53,148.5C 49.7073,147.444 46.874,145.777 44.5,143.5C 44.0269,142.094 43.0269,141.427 41.5,141.5C 27.8604,127.194 13.8604,113.194 -0.5,99.5C -0.5,97.5 -0.5,95.5 -0.5,93.5C 3.66501,89.5032 7.99834,85.6699 12.5,82C 22.3393,76.482 32.3393,76.1487 42.5,81C 49.3025,86.8013 55.8025,92.9679 62,99.5C 68.3685,92.964 74.8685,86.6306 81.5,80.5C 84.1667,79.8333 85.8333,78.1667 86.5,75.5C 90.8333,73.1667 94.1667,69.8333 96.5,65.5C 110.114,53.518 123.781,53.518 137.5,65.5 Z"/></g>
<g><path style="opacity:1" fill="#1c1c1c" d="M 398.5,133.5 C 398.027,132.094 397.027,131.427 395.5,131.5C 391.164,124.199 388.83,116.199 388.5,107.5C 388.03,106.307 387.03,105.64 385.5,105.5C 384.274,105.52 383.274,105.853 382.5,106.5C 375.987,108.46 369.321,109.793 362.5,110.5C 361.167,110.5 360.5,111.167 360.5,112.5C 358.091,119.818 354.757,126.651 350.5,133C 346.037,134.203 343.37,132.536 342.5,128C 344.244,122.344 346.41,116.844 349,111.5C 348.163,105.959 350.163,101.959 355,99.5C 358.357,92.7704 362.19,86.4371 366.5,80.5C 367.906,80.0269 368.573,79.0269 368.5,77.5C 369.11,75.5659 370.11,73.8993 371.5,72.5C 372.906,72.0269 373.573,71.0269 373.5,69.5C 374.906,69.0269 375.573,68.0269 375.5,66.5C 376.906,66.0269 377.573,65.0269 377.5,63.5C 377.5,62.8333 377.833,62.5 378.5,62.5C 380.262,61.7377 381.262,60.4044 381.5,58.5C 384.7,55.5914 387.2,56.2581 389,60.5C 394.272,84.1993 399.272,107.866 404,131.5C 402.556,133.155 400.722,133.822 398.5,133.5 Z M 380.5,77.5 C 381.167,78.1667 381.833,78.8333 382.5,79.5C 382.951,84.4686 383.951,89.3019 385.5,94C 381.195,95.3595 376.861,96.5262 372.5,97.5C 370.901,97.7678 369.568,97.4345 368.5,96.5C 372.736,90.3717 376.736,84.0384 380.5,77.5 Z"/></g>
<g><path style="opacity:0.498" fill="#8c8c8a" d="M 327.5,56.5 C 328.906,56.9731 329.573,57.9731 329.5,59.5C 328.094,59.0269 327.427,58.0269 327.5,56.5 Z"/></g>
<g><path style="opacity:0.851" fill="#888886" d="M 381.5,58.5 C 381.262,60.4044 380.262,61.7377 378.5,62.5C 378.738,60.5956 379.738,59.2623 381.5,58.5 Z"/></g>
<g><path style="opacity:0.357" fill="#aaaaa8" d="M 377.5,63.5 C 377.573,65.0269 376.906,66.0269 375.5,66.5C 375.427,64.9731 376.094,63.9731 377.5,63.5 Z"/></g>
<g><path style="opacity:0.557" fill="#d2d0fd" d="M 137.5,65.5 C 140.833,68.1667 143.833,71.1667 146.5,74.5C 142.5,72.5 139.5,69.5 137.5,65.5 Z"/></g>
<g><path style="opacity:0.427" fill="#a5a5a3" d="M 318.5,64.5 C 320.882,66.0461 323.549,66.7128 326.5,66.5C 323.282,68.1839 320.615,67.5172 318.5,64.5 Z"/></g>
<g><path style="opacity:0.078" fill="#c8c8c6" d="M 449.5,67.5 C 447.114,67.2587 445.114,67.9254 443.5,69.5C 445.114,67.9254 447.114,67.2587 449.5,67.5 Z"/></g>
<g><path style="opacity:0.404" fill="#9d9d9b" d="M 375.5,66.5 C 375.573,68.0269 374.906,69.0269 373.5,69.5C 373.427,67.9731 374.094,66.9731 375.5,66.5 Z"/></g>
<g><path style="opacity:0.851" fill="#b0abfd" d="M 96.5,65.5 C 94.1667,69.8333 90.8333,73.1667 86.5,75.5C 89.5,71.8333 92.8333,68.5 96.5,65.5 Z"/></g>
<g><path style="opacity:0.357" fill="#a3a3a1" d="M 373.5,69.5 C 373.573,71.0269 372.906,72.0269 371.5,72.5C 371.427,70.9731 372.094,69.9731 373.5,69.5 Z"/></g>
<g><path style="opacity:0.239" fill="#c9c8c7" d="M 382.5,79.5 C 381.833,78.8333 381.167,78.1667 380.5,77.5C 380.369,76.6236 380.702,75.9569 381.5,75.5C 382.429,76.6888 382.762,78.0222 382.5,79.5 Z"/></g>
<g><path style="opacity:1" fill="#1c1c1c" d="M 299.5,78.5 C 299.833,79.5 300.5,80.1667 301.5,80.5C 302.117,80.6107 302.617,80.944 303,81.5C 304.936,87.1817 304.936,92.8484 303,98.5C 297.106,102.11 294.272,100.444 294.5,93.5C 294.5,91.1667 294.5,88.8333 294.5,86.5C 293.209,86.2627 292.209,86.596 291.5,87.5C 283.91,89.06 278.41,93.3933 275,100.5C 274.667,110.833 274.333,121.167 274,131.5C 273.626,132.416 273.126,133.25 272.5,134C 270.167,134.667 267.833,134.667 265.5,134C 264.342,116.24 264.175,98.407 265,80.5C 267.218,78.3813 269.718,78.048 272.5,79.5C 273.127,80.4168 273.461,81.4168 273.5,82.5C 273.238,83.9778 273.571,85.3112 274.5,86.5C 275.107,86.3764 275.44,86.0431 275.5,85.5C 277.027,85.573 278.027,84.9063 278.5,83.5C 284.628,77.8965 291.628,76.2298 299.5,78.5 Z"/></g>
<g><path style="opacity:0.004" fill="#c3c3c1" d="M 299.5,78.5 C 300.833,78.5 301.5,79.1667 301.5,80.5C 300.5,80.1667 299.833,79.5 299.5,78.5 Z"/></g>
<g><path style="opacity:0.871" fill="#b1abfd" d="M 86.5,75.5 C 85.8333,78.1667 84.1667,79.8333 81.5,80.5C 82.8333,78.5 84.5,76.8333 86.5,75.5 Z"/></g>
<g><path style="opacity:1" fill="#1d1d1d" d="M 251.5,85.5 C 250.949,88.8067 250.616,92.1401 250.5,95.5C 249.042,107.976 251.042,119.809 256.5,131C 255.55,133.91 253.55,135.077 250.5,134.5C 250.027,133.094 249.027,132.427 247.5,132.5C 246.206,131.71 245.039,130.71 244,129.5C 235.064,135.252 225.897,135.919 216.5,131.5C 215.738,129.738 214.404,128.738 212.5,128.5C 206.61,119.299 205.11,109.299 208,98.5C 208.941,96.2726 210.108,94.2726 211.5,92.5C 212.906,92.0269 213.573,91.0269 213.5,89.5C 214.833,87.5 216.5,85.8333 218.5,84.5C 220.027,84.573 221.027,83.9063 221.5,82.5C 231.114,77.0907 240.781,77.2574 250.5,83C 251.252,83.6708 251.586,84.5041 251.5,85.5 Z M 240.5,121.5 C 238.973,121.427 237.973,122.094 237.5,123.5C 232.922,125.419 228.255,125.752 223.5,124.5C 222.5,122.833 221.167,121.5 219.5,120.5C 213.892,103.715 219.392,92.7148 236,87.5C 237.816,88.3295 239.649,89.1628 241.5,90C 240.684,100.518 240.35,111.018 240.5,121.5 Z"/></g>
<g><path style="opacity:1" fill="#212121" d="M 320.5,78.5 C 326.96,79.5186 329.293,83.3519 327.5,90C 326.85,103.16 326.35,116.327 326,129.5C 323,132.167 320,132.167 317,129.5C 315.306,113.843 315.306,98.1761 317,82.5C 317.69,80.6498 318.856,79.3164 320.5,78.5 Z"/></g>
<g><path style="opacity:0.357" fill="#9f9f9d" d="M 368.5,77.5 C 368.573,79.0269 367.906,80.0269 366.5,80.5C 366.427,78.9731 367.094,77.9731 368.5,77.5 Z"/></g>
<g><path style="opacity:0.827" fill="#7e7e7d" d="M 221.5,82.5 C 221.027,83.9063 220.027,84.573 218.5,84.5C 218.973,83.0937 219.973,82.427 221.5,82.5 Z"/></g>
<g><path style="opacity:0.698" fill="#939392" d="M 278.5,83.5 C 278.027,84.9063 277.027,85.573 275.5,85.5C 275.973,84.0937 276.973,83.427 278.5,83.5 Z"/></g>
<g><path style="opacity:0.31" fill="#cacac8" d="M 273.5,82.5 C 274.167,83.5 274.833,84.5 275.5,85.5C 275.44,86.0431 275.107,86.3764 274.5,86.5C 273.571,85.3112 273.238,83.9778 273.5,82.5 Z"/></g>
<g><path style="opacity:0.424" fill="#9e9d9c" d="M 213.5,89.5 C 213.573,91.0269 212.906,92.0269 211.5,92.5C 211.427,90.9731 212.094,89.9731 213.5,89.5 Z"/></g>
<g><path style="opacity:0.004" fill="#e7e7e6" d="M 291.5,87.5 C 292.209,86.596 293.209,86.2627 294.5,86.5C 294.5,88.8333 294.5,91.1667 294.5,93.5C 294.06,91.1561 293.06,89.1561 291.5,87.5 Z"/></g>
<g><path style="opacity:0.008" fill="#e4e4e3" d="M 251.5,85.5 C 252.494,88.8969 252.16,92.2302 250.5,95.5C 250.616,92.1401 250.949,88.8067 251.5,85.5 Z"/></g>
<g><path style="opacity:0.01" fill="#cfcfce" d="M 368.5,96.5 C 369.568,97.4345 370.901,97.7678 372.5,97.5C 370.965,98.7879 369.299,98.7879 367.5,97.5C 367.624,96.8933 367.957,96.56 368.5,96.5 Z"/></g>
<g><path style="opacity:0.047" fill="#e1e1df" d="M 382.5,106.5 C 383.274,105.853 384.274,105.52 385.5,105.5C 387.03,105.64 388.03,106.307 388.5,107.5C 386.621,106.659 384.621,106.325 382.5,106.5 Z"/></g>
<g><path style="opacity:0.012" fill="#eeeeec" d="M 362.5,110.5 C 362.167,111.5 361.5,112.167 360.5,112.5C 360.5,111.167 361.167,110.5 362.5,110.5 Z"/></g>
<g><path style="opacity:0.145" fill="#dededc" d="M 443.5,71.5 C 443.5,87.8333 443.5,104.167 443.5,120.5C 449.358,120.178 455.025,120.511 460.5,121.5C 454.5,121.5 448.5,121.5 442.5,121.5C 442.17,104.658 442.503,87.9916 443.5,71.5 Z"/></g>
<g><path style="opacity:0.573" fill="#b3b3b1" d="M 219.5,120.5 C 221.167,121.5 222.5,122.833 223.5,124.5C 221.167,124.167 219.833,122.833 219.5,120.5 Z"/></g>
<g><path style="opacity:0.714" fill="#8e8e8c" d="M 240.5,121.5 C 240.027,122.906 239.027,123.573 237.5,123.5C 237.973,122.094 238.973,121.427 240.5,121.5 Z"/></g>
<g><path style="opacity:0.29" fill="#b0b0af" d="M 461.5,121.5 C 462.906,121.973 463.573,122.973 463.5,124.5C 462.094,124.027 461.427,123.027 461.5,121.5 Z"/></g>
<g><path style="opacity:0.067" fill="#d3d3d1" d="M 163.5,112.5 C 163.5,116.833 163.5,121.167 163.5,125.5C 166.167,125.5 168.833,125.5 171.5,125.5C 168.713,126.477 165.713,126.81 162.5,126.5C 162.181,121.637 162.514,116.97 163.5,112.5 Z"/></g>
<g><path style="opacity:0.8" fill="#969694" d="M 212.5,128.5 C 214.404,128.738 215.738,129.738 216.5,131.5C 214.596,131.262 213.262,130.262 212.5,128.5 Z"/></g>
<g><path style="opacity:0.314" fill="#aaaaa8" d="M 395.5,131.5 C 397.027,131.427 398.027,132.094 398.5,133.5C 396.973,133.573 395.973,132.906 395.5,131.5 Z"/></g>
<g><path style="opacity:0.318" fill="#a6a5a4" d="M 247.5,132.5 C 249.027,132.427 250.027,133.094 250.5,134.5C 248.973,134.573 247.973,133.906 247.5,132.5 Z"/></g>
<g><path style="opacity:0.753" fill="#c2bffd" d="M 41.5,141.5 C 43.0269,141.427 44.0269,142.094 44.5,143.5C 42.9731,143.573 41.9731,142.906 41.5,141.5 Z"/></g>
</svg>
